<?xml version="1.0" encoding="UTF-8"?>
<svg id="Layer_1" data-name="Layer 1" xmlns="http://www.w3.org/2000/svg" viewBox="0 0 107.1 86.41">
  <path d="m51.25,51.06c.91-1.2,2.75-1.98,4.73-1.98,2.29,0,4.33.78,6.03,1.61.55-1.51.97-3.3.97-5.34,0-1.19-.17-2.63-.32-3.49-.19-1.19.26-1.38,1.23-.65,1.2.91,1.98,2.75,1.98,4.73,0,2.29-.78,4.33-1.61,6.03,1.51.55,3.3.97,5.34.97,1.19,0,2.63-.17,3.49-.32,1.19-.19,1.38.26.65,1.23-.91,1.2-2.75,1.98-4.73,1.98-2.29,0-4.33-.78-6.03-1.61-.55,1.51-.97,3.3-.97,5.34,0,1.19.17,2.63.32,3.49.19,1.19-.26,1.38-1.23.65-1.2-.91-1.98-2.75-1.98-4.73,0-2.29.78-4.33,1.61-6.03-1.51-.55-3.3-.97-5.34-.97-1.19,0-2.63.17-3.49.32-1.19.19-1.38-.26-.65-1.23h0Zm10.56-19.98v5.01c2.7.26,5.28,1.41,6.99,3.57,1.93,2.44,2.43,5.67,2.19,8.69h5.01c.28-4.16-.67-8.46-3.29-11.78-2.67-3.39-6.67-5.16-10.9-5.5h0Zm0-30.76v4.99c10.61.65,20.32,5.16,27.55,12.28,7.87,7.75,12.5,18.42,12.74,29.01.2,8.94-2.71,17.82-9.44,24.84-10.95,11.44-28.03,13.81-40.12,3.14-5.78-5.1-9.18-12.81-7.81-20.45.55-3.07,1.85-5.56,3.81-7.26,1.93-1.68,4.56-2.62,7.78-2.62.72,0,1.45.04,2.2.13v-4.87c-4.74-.63-9.58.4-13.26,3.59-2.81,2.45-4.67,5.93-5.43,10.15-1.67,9.32,2.3,18.79,9.41,25.06,14.11,12.44,34.2,9.97,47.02-3.41,7.52-7.85,10.92-17.76,10.84-27.74-.09-12.06-5.23-24.24-14.25-33.12C84.72,6.02,73.76.98,61.8.32h0Zm0,10.32v5.01c3.98.42,7.91,1.45,11.55,3.12,8.78,4.03,15.78,11.73,17.76,22.94,2.39,13.49-4.67,28.88-20.11,29.16-4.43.08-9.23-.99-12.5-4.17-2.49-2.42-3.92-5.93-3.95-10.4h-4.98c.03,5.9,2.01,10.62,5.46,13.97,4.26,4.14,10.32,5.69,16.11,5.59,18.11-.33,27.48-17.79,25.06-34.03-2.02-13.52-10.31-22.79-20.79-27.6-4.29-1.97-8.92-3.17-13.62-3.6h0Zm0,10.36v4.99c3.97.3,8.54,1.95,12.26,5.2,3.81,3.32,6.41,8.58,7.1,13.95.6,4.66-.05,10.61-4.28,13.48-1.86,1.27-4.28,1.88-7.03,1.88-1.27,0-2.6-.13-3.97-.38v5.06c1.36.21,2.69.32,3.97.32,3.72,0,7.09-.9,9.83-2.76,5.65-3.84,7.16-11.03,6.53-17.44-.68-6.83-3.91-13.57-8.85-17.88-4.69-4.08-10.51-6.12-15.54-6.42Z" style="fill: #101828; fill-rule: evenodd; stroke-width: 0px;"/>
  <g>
    <g>
      <path d="m54.08,3.66h.76v-1.85h.85v1.88h.57v-1.89s.84,0,.84,0v1.88h.52s0-1.87,0-1.87l.9-.02v2.27c0,.27-.23.4-.7.4h-3.72s-.83,0-.83,0V.27h.83v3.38Z" style="fill: #101828; fill-rule: evenodd; stroke-width: 0px;"/>
      <path d="m50.38,6.56v-.82c.15-.02.26-.03.34-.04.08-.01.13-.02.15-.02.18-.04.27-.29.27-.76v-2.53l.84-.02v2.8c0,.4-.1.73-.29.98-.2.27-.5.4-.89.4h-.43Z" style="fill: #101828; fill-rule: evenodd; stroke-width: 0px;"/>
      <path d="m51.19,1.42c0-.1.04-.19.12-.27.08-.08.17-.12.27-.12.11,0,.2.04.28.11.08.07.12.16.12.27,0,.12-.04.22-.11.29-.07.07-.17.1-.29.1-.11,0-.2-.04-.28-.11-.07-.07-.11-.17-.11-.28Z" style="fill: #101828; fill-rule: evenodd; stroke-width: 0px;"/>
      <path d="m45.8,4.46V.27h.83v3.38h.76v-1.86h1.11c.3,0,.58.16.82.47.24.31.37.61.37.91v.95c0,.08-.04.15-.11.22-.07.07-.15.1-.23.1h-2.72s-.83,0-.83,0h0Zm2.47-.79h.54v-.61c0-.12-.05-.23-.16-.33-.11-.11-.22-.16-.33-.16h-.05v1.11Z" style="fill: #101828; fill-rule: evenodd; stroke-width: 0px;"/>
      <path d="m42.11,5.74V1.91h.88v3.44h1.16V1.91h.87v3.81c0,.11-.05.21-.14.29-.09.08-.2.12-.31.12h-2.03c-.09,0-.19-.05-.28-.14-.11-.08-.16-.17-.16-.26Z" style="fill: #101828; fill-rule: evenodd; stroke-width: 0px;"/>
      <path d="m43.15,1.27c0-.11.04-.21.12-.3.08-.09.18-.13.29-.13s.2.04.28.12c.08.08.12.18.12.29,0,.1-.04.19-.12.27-.08.08-.17.12-.28.12-.11,0-.21-.04-.29-.11-.08-.07-.12-.16-.12-.27Z" style="fill: #101828; fill-rule: evenodd; stroke-width: 0px;"/>
      <path d="m33.43,6v-.78h.45c.3,0,.52-.04.67-.11.2-.11.3-.3.3-.57v-.09h-1.41v-1.42c0-.35.15-.64.46-.88.29-.23.62-.34.97-.34h.82v1.84h.81c0-.55.21-1.01.63-1.35.05-.04.1-.08.15-.12.05-.03.09-.06.14-.08l.25-.1c.13-.06.2-.11.2-.15v-.05h.84l-.02.09c.11.05.2.09.28.13.08.04.15.07.21.09.13.07.25.16.35.25.1.1.2.2.29.32.18.27.27.53.27.79v.97h-4.4v.16c0,.38-.13.71-.39.98-.25.27-.58.41-.98.41h-.89Zm5.31-3.16v.82h.5v-.11c-.02-.08-.04-.14-.06-.18-.02-.08-.03-.15-.05-.2-.02-.05-.05-.1-.08-.14-.03-.04-.07-.07-.12-.1-.05-.03-.11-.06-.18-.09h0Zm-1.38.82h.47v-.82c-.2.12-.32.21-.33.25-.01.02-.03.07-.05.13-.02.07-.05.16-.09.27v.17h0Zm-3.07,0h.55v-1.01h-.16c-.1,0-.19.04-.27.11-.08.07-.12.16-.12.26v.64Z" style="fill: #101828; fill-rule: evenodd; stroke-width: 0px;"/>
      <rect x="31.73" y=".27" width=".85" height="4.19" style="fill: #101828; stroke-width: 0px;"/>
      <path d="m26.41,3.66h.74v-1.85h.85v1.88h.57v-1.89h.85v1.88h.51v-1.87h.93s-.03,2.25-.03,2.25c0,.25-.19.37-.56.37l-1.31.02c-.29,0-.55,0-.76,0h-3.75s-.83,0-.83,0V.27h.83v3.38h1.11v-1.85h.86v1.85Z" style="fill: #101828; fill-rule: evenodd; stroke-width: 0px;"/>
      <path d="m29.06,1.14c0-.11.03-.2.1-.28.07-.08.15-.12.26-.12.11,0,.21.04.29.12.08.08.12.17.12.28s-.04.2-.11.28c-.07.07-.16.11-.27.11h-.08c-.08,0-.16-.04-.22-.13-.05-.07-.07-.15-.07-.25Z" style="fill: #101828; fill-rule: evenodd; stroke-width: 0px;"/>
      <path d="m28.19,1.15c0-.1.04-.19.11-.28s.16-.13.26-.13c.12,0,.21.04.29.11.08.07.12.17.12.28,0,.11-.04.2-.12.27-.08.08-.17.12-.27.12-.11,0-.2-.03-.28-.1-.07-.07-.11-.16-.11-.27Z" style="fill: #101828; fill-rule: evenodd; stroke-width: 0px;"/>
      <path d="m28.62.41c0-.11.04-.21.11-.29.07-.08.16-.12.26-.12.11,0,.21.04.29.12.08.08.12.18.12.3,0,.11-.03.19-.1.26s-.16.1-.27.1c-.12,0-.21-.03-.29-.1-.07-.07-.11-.16-.11-.27Z" style="fill: #101828; fill-rule: evenodd; stroke-width: 0px;"/>
      <path d="m25.54.85c0-.11.04-.2.12-.27s.17-.11.28-.11.2.04.28.11c.08.07.12.16.12.27s-.03.2-.1.28c-.07.07-.17.11-.29.11-.11,0-.2-.04-.28-.11-.08-.07-.12-.17-.12-.28Z" style="fill: #101828; fill-rule: evenodd; stroke-width: 0px;"/>
      <path d="m18.25,3.66h.92v-1.85h.85v1.88h.57v-1.89s.84,0,.84,0v1.88h.52s0-1.87,0-1.87l.9-.02v2.27c0,.27-.23.4-.7.4h-3.7c-.06,0-.09,0-.1.02.05.09.09.21.12.34.03.13.04.29.04.47,0,.29-.02.48-.07.56-.08.11-.26.16-.52.16h-2.64c-.09,0-.18-.03-.26-.11-.08-.08-.12-.16-.12-.26v-2.21h.86v1.81h1.94v-.49c-.08-.2-.22-.3-.42-.3-.29,0-.46-.02-.52-.06-.08-.06-.18-.21-.29-.45v-.28h1.79Z" style="fill: #101828; fill-rule: evenodd; stroke-width: 0px;"/>
      <path d="m7.39,1.16c0-.11.04-.21.12-.29.08-.09.18-.13.29-.13.09,0,.19.04.27.12.09.08.13.17.13.27,0,.11-.04.2-.12.28-.08.07-.17.11-.28.11-.1,0-.19-.03-.27-.1-.09-.07-.14-.15-.14-.26Z" style="fill: #101828; fill-rule: evenodd; stroke-width: 0px;"/>
      <path d="m6.55,1.15c0-.09.04-.18.12-.27.08-.09.17-.14.26-.14.11,0,.21.04.29.12.08.08.12.17.12.28s-.04.2-.12.27c-.08.07-.17.11-.28.11s-.2-.03-.28-.1c-.08-.07-.12-.16-.12-.27Z" style="fill: #101828; fill-rule: evenodd; stroke-width: 0px;"/>
      <path d="m6.97.42c0-.12.04-.21.11-.29.07-.08.17-.12.28-.12s.21.04.29.12c.08.08.12.18.12.29,0,.09-.04.18-.12.26-.08.08-.17.12-.28.12-.11,0-.21-.03-.29-.1-.08-.07-.12-.16-.12-.27Z" style="fill: #101828; fill-rule: evenodd; stroke-width: 0px;"/>
      <path d="m2.49,6v-.78h.45c.3,0,.52-.04.67-.11.2-.11.3-.3.3-.57v-.09h-1.41v-1.42c0-.35.15-.64.46-.88.29-.23.62-.34.97-.34h.82v1.84h.8l.02-1.87h.81c0,.07,0,.15,0,.24,0,.09,0,.2.01.32,0,.13,0,.24,0,.32v.23c0,.14,0,.28-.01.39,0,.12-.02.23-.03.32l.02.04.02.03.54-.02v-1.87h.88l-.02,1.89.52-.02v-1.89s.91,0,.91,0v1.86h2.84v-.34c0-.09-.04-.16-.11-.22-.07-.06-.15-.09-.23-.09-.63,0-1.07-.05-1.32-.14-.42-.17-.62-.52-.62-1.06,0-.33.1-.6.31-.81.21-.22.47-.33.78-.33h1.76v.75h-1.7c-.1,0-.18.04-.24.12-.06.08-.09.17-.09.27,0,.27.14.4.42.4h.08s.06,0,.08,0h.32c.44,0,.77.05.97.16.3.14.45.42.45.82v.91c0,.09-.04.18-.11.25s-.15.11-.23.11h-3.34s-.15,0-.15,0h-4.34v.16c0,.38-.13.71-.39.98-.25.27-.58.41-.98.41h-.89Zm.86-2.34h.55v-1.01h-.16c-.1,0-.19.04-.27.11-.08.07-.12.16-.12.26v.64Z" style="fill: #101828; fill-rule: evenodd; stroke-width: 0px;"/>
      <path d="m0,6.56v-.82c.15-.02.26-.03.35-.04.08-.01.13-.02.16-.02.17-.04.26-.29.26-.76v-2.53s.85-.02.85-.02v2.8c0,.41-.09.74-.28.98-.2.27-.5.4-.9.4h-.43Z" style="fill: #101828; fill-rule: evenodd; stroke-width: 0px;"/>
    </g>
    <path d="m16.63,9.79v5.35h-1.21v-5.35h1.21Zm1.86,5.35h-1.21v-1.1h1.21v1.1h0Zm6.07-2.38l1.51,2.38h-1.4l-1.63-2.89h.65s.06,0,.13,0c.07,0,.12,0,.17,0,.64,0,.96-.28.98-.84,0-.29-.08-.53-.23-.7-.15-.17-.35-.26-.59-.26h-1.08v4.68h-1.21v-5.35h2.44c1.19,0,1.78.52,1.78,1.55-.02.42-.14.74-.36.95-.22.21-.47.34-.75.41-.21.05-.34.07-.39.07-.01,0-.02,0-.02,0h0Zm3.14,2.38h-1.21v-1.1h1.21v1.1h0Zm5.46-5.37c.56,0,1,.1,1.34.3.34.2.58.5.73.89.15.39.22.89.22,1.49s-.08,1.13-.24,1.53c-.16.41-.41.71-.75.9-.34.2-.78.29-1.31.29s-.94-.1-1.27-.29c-.33-.19-.57-.49-.73-.89-.16-.4-.24-.92-.24-1.55,0-.9.19-1.57.56-2.01.37-.44.93-.67,1.69-.68h0Zm-.99,2.69c.02.62.09,1.11.2,1.46.11.34.37.52.79.53.3,0,.53-.09.68-.28.15-.19.24-.42.28-.69.04-.27.06-.6.06-.99s-.02-.73-.05-.99c-.03-.26-.13-.49-.27-.68-.15-.19-.37-.29-.67-.29-.43,0-.7.17-.83.52-.13.35-.19.82-.19,1.42h0Zm5.04,2.68h-1.21v-5.35h3.62v.67h-2.41v1.56h2.01v.67h-2.01v2.46h0Zm6.7-5.35v5.35h-1.21v-5.35h1.21Zm3.39,2.97l1.51,2.38h-1.4l-1.63-2.89h.65s.06,0,.13,0c.07,0,.12,0,.17,0,.64,0,.96-.28.98-.84,0-.29-.08-.53-.23-.7-.15-.17-.35-.26-.6-.26h-1.08v4.68h-1.21v-5.35h2.44c1.19,0,1.78.52,1.78,1.55-.02.42-.14.74-.36.95-.22.21-.47.34-.74.41-.21.05-.34.07-.39.07-.01,0-.02,0-.02,0h0Zm2.88,1.1l-.43,1.27h-.83l1.84-5.35h1.36l1.87,5.35h-1.21l-.47-1.27h-2.12Zm1.87-.78l-.81-2.28-.78,2.28h1.59Zm5.6.54v-3.82h.87v5.35h-1.41l-1.94-4.06v4.05h-.85v-5.35h1.49l1.85,3.83Z" style="fill: #101828; fill-rule: evenodd; stroke-width: 0px;"/>
    <path d="m3.77,21.99l-1.41,3.5-1.47-3.5v3.4H.08v-5.08h1.27l1.18,2.66,1.13-2.66h1.25v5.08h-1.14v-3.4h0Zm1.8-1.68h3.42v.63h-2.28v1.48h1.9v.63h-1.9v1.7h2.31v.63h-3.45v-5.08h0Zm4.98.63h-1.38v-.63h3.9v.63h-1.38v4.44h-1.14v-4.44h0Zm2.91-.63h3.42v.63h-2.28v1.48h1.9v.63h-1.9v1.7h2.31v.63h-3.45v-5.08h0Zm5.88-.02c.52,0,.95.09,1.27.29.32.19.55.47.69.85.14.37.21.85.21,1.42s-.08,1.07-.23,1.45c-.15.39-.39.67-.71.86-.32.19-.73.28-1.24.28s-.88-.09-1.2-.27c-.31-.18-.54-.47-.69-.85-.15-.38-.22-.87-.22-1.47,0-.85.18-1.49.53-1.91.35-.42.88-.64,1.59-.64h0Zm-.94,2.55c.02.59.08,1.05.19,1.38.11.33.35.49.74.5.29,0,.5-.09.64-.27.14-.18.23-.39.27-.65.04-.26.06-.57.06-.94s-.02-.69-.05-.94c-.03-.25-.12-.46-.26-.65-.14-.18-.35-.28-.63-.28-.4,0-.66.17-.78.5-.12.33-.18.78-.18,1.35h0Zm6.18.29l1.43,2.26h-1.32l-1.54-2.75h.62s.06,0,.12,0c.06,0,.12,0,.16,0,.6,0,.91-.27.93-.8,0-.28-.07-.5-.21-.67-.14-.17-.33-.25-.56-.25h-1.02v4.44h-1.14v-5.08h2.31c1.12,0,1.68.49,1.68,1.47-.02.4-.13.7-.34.9-.21.2-.45.33-.7.39-.2.05-.32.07-.37.07-.01,0-.02,0-.02,0h0Zm3.85-2.84c.52,0,.95.09,1.27.29.32.19.55.47.69.85.14.37.21.85.21,1.42s-.08,1.07-.23,1.45c-.15.39-.39.67-.71.86-.32.19-.73.28-1.24.28s-.88-.09-1.2-.27c-.31-.18-.54-.47-.69-.85-.15-.38-.22-.87-.22-1.47,0-.85.18-1.49.53-1.91.35-.42.88-.64,1.59-.64h0Zm-.94,2.55c.02.59.08,1.05.19,1.38.11.33.35.49.74.5.29,0,.5-.09.64-.27.14-.18.23-.39.27-.65.04-.26.06-.57.06-.94s-.02-.69-.05-.94c-.03-.25-.12-.46-.26-.65s-.35-.28-.63-.28c-.4,0-.66.17-.78.5-.12.33-.18.78-.18,1.35h0Zm4.77,1.91h2.44v.63h-3.58v-5.08h1.14v4.45h0Zm4.78-4.47c.52,0,.95.09,1.27.29.32.19.55.47.69.85.14.37.21.85.21,1.42s-.08,1.07-.23,1.45c-.15.39-.39.67-.71.86-.32.19-.73.28-1.24.28s-.88-.09-1.2-.27c-.31-.18-.54-.47-.69-.85-.15-.38-.22-.87-.22-1.47,0-.85.18-1.49.53-1.91.35-.42.88-.64,1.59-.64h0Zm-.94,2.55c.02.59.08,1.05.19,1.38.11.33.35.49.74.5.29,0,.5-.09.64-.27.14-.18.23-.39.27-.65.04-.26.06-.57.06-.94s-.02-.69-.05-.94c-.03-.25-.12-.46-.26-.65s-.35-.28-.63-.28c-.4,0-.66.17-.78.5-.12.33-.18.78-.18,1.35h0Zm7.65.31v1.83s-.07.07-.22.15c-.15.07-.37.14-.66.21-.3.06-.66.09-1.08.09-.56-.01-1-.12-1.32-.31-.32-.2-.55-.49-.68-.88-.13-.39-.2-.91-.2-1.55.01-.51.09-.95.23-1.3.14-.35.36-.62.67-.81.3-.19.7-.29,1.2-.29.47,0,.88.03,1.23.09.35.06.53.1.54.13l.2.82h0s-.06-.04-.17-.11c-.13-.07-.29-.13-.5-.19-.21-.06-.46-.08-.75-.08-.14,0-.24,0-.32.01-.72.05-1.08.62-1.08,1.73,0,.38.02.72.05,1,.03.29.11.53.24.74.12.21.31.32.56.35.3,0,.52-.03.68-.08.15-.05.24-.1.28-.14v-1.42h1.11Zm1.78-2.84v5.08h-1.14v-5.08h1.14Zm4.12,4.8s-.13.1-.39.18c-.26.09-.58.13-.95.14-.87,0-1.48-.22-1.82-.67-.35-.45-.52-1.14-.52-2.09.02-.51.1-.94.23-1.29.14-.35.36-.62.68-.81.31-.19.74-.29,1.27-.3.32,0,.6.02.86.07.25.05.43.09.54.13l.22.86c-.09-.07-.26-.15-.5-.24-.24-.1-.53-.15-.87-.15-.47,0-.78.17-.94.49-.16.33-.24.74-.24,1.24,0,.38.02.72.06,1.01.04.29.14.54.28.75.15.21.36.32.64.34.33,0,.61-.03.83-.09.22-.06.39-.13.51-.21.11-.07.16-.11.16-.12h0l-.07.76h0Zm1.38-.93l-.41,1.21h-.79l1.74-5.08h1.28l1.77,5.08h-1.14l-.44-1.21h-2.01Zm1.77-.74l-.77-2.17-.73,2.17h1.5Zm3.27,1.32h2.44v.63h-3.58v-5.08h1.14v4.45Z" style="fill: #101828; fill-rule: evenodd; stroke-width: 0px;"/>
    <path d="m11.14,31.13c.54,0,.97.09,1.3.29.33.19.57.47.71.85.14.37.21.85.21,1.42s-.08,1.07-.23,1.45c-.16.39-.4.67-.73.86-.33.19-.75.28-1.27.28s-.91-.09-1.23-.27c-.32-.18-.56-.47-.71-.85s-.23-.87-.23-1.47c0-.85.19-1.49.54-1.91.36-.42.9-.64,1.63-.64h0Zm-.96,2.55c.02.59.08,1.05.19,1.38.11.33.36.49.76.5.29,0,.51-.09.66-.27.15-.18.24-.39.27-.65.04-.26.06-.57.06-.94s-.02-.69-.05-.94c-.03-.25-.12-.46-.26-.65-.14-.18-.36-.28-.65-.28-.41,0-.68.17-.8.5-.12.33-.18.78-.18,1.35h0Zm6.33.29l1.47,2.26h-1.36l-1.58-2.75h.63s.06,0,.12,0c.06,0,.12,0,.16,0,.62,0,.93-.27.95-.8,0-.28-.07-.5-.22-.67-.15-.17-.34-.25-.58-.25h-1.05v4.44h-1.17v-5.08h2.36c1.15,0,1.72.49,1.72,1.47-.02.4-.13.7-.35.9-.22.2-.46.33-.72.39-.2.05-.33.07-.38.07-.01,0-.02,0-.02,0h0Zm6.03.02v1.83s-.08.07-.22.15c-.15.07-.38.14-.68.21-.3.06-.67.09-1.1.09-.57-.01-1.02-.12-1.35-.31-.33-.2-.56-.49-.7-.88-.14-.39-.2-.91-.2-1.55.02-.51.09-.95.24-1.3.14-.35.37-.62.68-.81.31-.19.72-.29,1.23-.29.48,0,.9.03,1.26.09.36.06.54.1.55.13l.2.82h0s-.06-.04-.18-.11c-.13-.07-.3-.13-.51-.19-.21-.06-.47-.08-.77-.08-.14,0-.25,0-.33.01-.74.05-1.11.62-1.11,1.73,0,.38.02.72.05,1,.03.29.11.53.24.74.13.21.32.32.57.35.31,0,.54-.03.69-.08.15-.05.25-.1.29-.14v-1.42h1.14Zm1.53,1.02l-.42,1.21h-.81l1.78-5.08h1.31l1.81,5.08h-1.17l-.45-1.21h-2.05Zm1.81-.74l-.79-2.17-.75,2.17h1.54Zm5.42.51v-3.63h.84v5.08h-1.37l-1.88-3.86v3.85h-.83v-5.08h1.45l1.79,3.64h0Zm2.69-3.64v5.08h-1.17v-5.08h1.17Zm2.86.63h-2.34v-.63h3.9l-2.52,4.45h2.29v.63h-3.84l2.52-4.44h0Zm2.87,3.23l-.42,1.21h-.81l1.78-5.08h1.31l1.81,5.08h-1.17l-.45-1.21h-2.05Zm1.81-.74l-.79-2.17-.75,2.17h1.54Zm3.3-2.49h-1.41v-.63h4v.63h-1.41v4.44h-1.17v-4.44h0Zm4.15-.63v5.08h-1.17v-5.08h1.17Zm2.69-.02c.54,0,.97.09,1.3.29.33.19.57.47.71.85.14.37.21.85.21,1.42s-.08,1.07-.23,1.45c-.16.39-.4.67-.73.86-.33.19-.75.28-1.27.28s-.91-.09-1.23-.27c-.32-.18-.56-.47-.71-.85s-.23-.87-.23-1.47c0-.85.19-1.49.54-1.91.36-.42.9-.64,1.63-.64h0Zm-.96,2.55c.02.59.08,1.05.19,1.38.11.33.36.49.76.5.29,0,.51-.09.66-.27.15-.18.24-.39.27-.65.04-.26.06-.57.06-.94s-.02-.69-.05-.94c-.03-.25-.12-.46-.26-.65-.14-.18-.36-.28-.65-.28-.41,0-.68.17-.8.5-.12.33-.18.78-.18,1.35h0Zm6.95,1.11v-3.63h.84v5.08h-1.37l-1.88-3.86v3.85h-.83v-5.08h1.45l1.79,3.64Z" style="fill: #101828; fill-rule: evenodd; stroke-width: 0px;"/>
  </g>
</svg>