<svg width="36" height="36" viewBox="0 0 36 36" fill="none" xmlns="http://www.w3.org/2000/svg">
<rect width="36" height="36" rx="18" fill="#F0F5FF"/>
<path d="M19.1089 25.4989C19.2099 25.495 19.3106 25.5115 19.405 25.5474C19.4995 25.5834 19.5857 25.638 19.6585 25.7081C19.7313 25.7781 19.7892 25.8621 19.8288 25.9551C19.8684 26.0481 19.8888 26.1481 19.8888 26.2492C19.8888 26.3502 19.8684 26.4502 19.8288 26.5432C19.7892 26.6362 19.7313 26.7202 19.6585 26.7903C19.5857 26.8603 19.4995 26.915 19.405 26.9509C19.3106 26.9868 19.2099 27.0033 19.1089 26.9994C18.9097 26.9994 18.7188 26.9203 18.578 26.7795C18.4371 26.6387 18.358 26.4477 18.358 26.2486C18.358 26.0495 18.4371 25.8585 18.578 25.7177C18.7188 25.5769 18.9097 25.4989 19.1089 25.4989ZM16.4826 24.748C16.5836 24.7441 16.6843 24.7606 16.7788 24.7966C16.8732 24.8325 16.9594 24.8872 17.0322 24.9572C17.1051 25.0273 17.163 25.1113 17.2026 25.2043C17.2421 25.2973 17.2625 25.3973 17.2625 25.4983C17.2625 25.5994 17.2421 25.6994 17.2026 25.7924C17.163 25.8853 17.1051 25.9694 17.0322 26.0394C16.9594 26.1095 16.8732 26.1641 16.7788 26.2001C16.6843 26.236 16.5836 26.2525 16.4826 26.2486C16.2887 26.2411 16.1052 26.1587 15.9706 26.0189C15.836 25.879 15.7608 25.6924 15.7608 25.4983C15.7608 25.3042 15.836 25.1177 15.9706 24.9778C16.1052 24.8379 16.2887 24.7556 16.4826 24.748ZM21.7351 24.748C21.8361 24.7441 21.9368 24.7606 22.0313 24.7966C22.1257 24.8325 22.2119 24.8872 22.2847 24.9572C22.3576 25.0273 22.4155 25.1113 22.4551 25.2043C22.4946 25.2973 22.515 25.3973 22.515 25.4983C22.515 25.5994 22.4946 25.6994 22.4551 25.7924C22.4155 25.8853 22.3576 25.9694 22.2847 26.0394C22.2119 26.1095 22.1257 26.1641 22.0313 26.2001C21.9368 26.236 21.8361 26.2525 21.7351 26.2486C21.5412 26.2411 21.3577 26.1587 21.2231 26.0189C21.0885 25.879 21.0134 25.6924 21.0134 25.4983C21.0134 25.3042 21.0885 25.1177 21.2231 24.9778C21.3577 24.8379 21.5412 24.7556 21.7351 24.748ZM19.1089 13.491C21.8826 13.491 23.4575 15.2618 23.686 17.4017H23.7558C25.5411 17.4017 26.9888 18.7942 26.9888 20.512C26.9888 22.2298 25.5411 23.6223 23.7558 23.6223H14.462C12.6766 23.6223 11.229 22.2298 11.229 20.512C11.229 18.7942 12.6766 17.4017 14.462 17.4017H14.5318C14.7614 15.2471 16.334 13.491 19.1089 13.491ZM19.1089 14.6167C17.2515 14.6167 15.6338 16.0464 15.6338 18.022C15.6338 18.3349 15.3479 18.5803 15.0203 18.5803H14.4012C13.271 18.5792 12.3547 19.4573 12.3547 20.5379C12.3547 21.6186 13.271 22.4966 14.4012 22.4966H23.8166C24.9468 22.4966 25.8631 21.6186 25.8631 20.5379C25.8631 19.4573 24.9468 18.5792 23.8166 18.5792H23.1974C22.8698 18.5803 22.5839 18.3349 22.5839 18.022C22.5839 16.0216 20.9652 14.6167 19.1089 14.6167ZM11.0072 16.5304C11.0505 16.6552 11.0485 16.7913 11.0016 16.9148C10.9547 17.0382 10.8658 17.1413 10.7506 17.2059L10.6583 17.2464L9.75657 17.5571C9.6235 17.6036 9.47781 17.5986 9.3483 17.5429C9.21879 17.4872 9.11489 17.3849 9.05717 17.2563C8.99944 17.1277 8.99208 16.9821 9.03654 16.8483C9.081 16.7145 9.17405 16.6023 9.29728 16.5338L9.38959 16.4933L10.2924 16.1826C10.4335 16.1342 10.588 16.1437 10.722 16.2092C10.856 16.2746 10.9586 16.3906 11.0072 16.5316M16.7674 11.8025C17.1423 11.9849 17.471 12.2224 17.7513 12.5004C17.2935 12.595 16.8672 12.7357 16.4725 12.9226C15.9641 12.6166 15.3653 12.4962 14.7781 12.5819C14.191 12.6676 13.6516 12.9541 13.2519 13.3927C12.8522 13.8313 12.6168 14.3949 12.5858 14.9875C12.5548 15.5801 12.7301 16.1651 13.0819 16.643C12.7104 16.7533 12.3614 16.9143 12.0406 17.1158C11.6054 16.4379 11.4039 15.6362 11.4667 14.833C11.5296 14.0298 11.8534 13.2693 12.3888 12.6673C12.9242 12.0653 13.6418 11.655 14.4321 11.4989C15.2225 11.3427 16.0422 11.4493 16.7663 11.8025M10.0087 11.9939L10.1033 12.0299L10.9611 12.4475C11.0875 12.509 11.1864 12.6156 11.2382 12.7463C11.29 12.877 11.2911 13.0223 11.2411 13.1538C11.1911 13.2852 11.0938 13.3932 10.9682 13.4564C10.8426 13.5197 10.6979 13.5336 10.5626 13.4955L10.4669 13.4595L9.61023 13.0419C9.48377 12.9804 9.3849 12.8738 9.33308 12.7431C9.28126 12.6124 9.28023 12.4671 9.3302 12.3356C9.38017 12.2042 9.47753 12.0963 9.6031 12.033C9.72867 11.9698 9.87337 11.9558 10.0087 11.9939ZM17.9708 9.32033C18.0893 9.37816 18.1838 9.47576 18.2377 9.59612C18.2916 9.71647 18.3015 9.85193 18.2657 9.97886L18.2297 10.0734L17.8121 10.9312C17.7506 11.0577 17.644 11.1565 17.5133 11.2084C17.3826 11.2602 17.2372 11.2612 17.1058 11.2112C16.9744 11.1613 16.8664 11.0639 16.8032 10.9383C16.7399 10.8128 16.726 10.6681 16.764 10.5327L16.8001 10.437L17.2177 9.57924C17.2501 9.51263 17.2954 9.45307 17.3509 9.40398C17.4063 9.35489 17.471 9.31724 17.5411 9.29318C17.6111 9.26913 17.6853 9.25914 17.7592 9.2638C17.8331 9.26846 17.9043 9.28767 17.9708 9.32033ZM13.7055 9.28431L13.7472 9.37661L14.0579 10.2794C14.1035 10.4123 14.0978 10.5575 14.0419 10.6864C13.986 10.8153 13.8838 10.9186 13.7556 10.9761C13.6273 11.0335 13.4822 11.0409 13.3488 10.9967C13.2154 10.9526 13.1033 10.8602 13.0346 10.7376L12.993 10.6453L12.6834 9.74359C12.6384 9.61101 12.6445 9.46643 12.7004 9.33809C12.7563 9.20974 12.858 9.10683 12.9857 9.04945C13.1134 8.99207 13.2579 8.98434 13.391 9.02776C13.5241 9.07119 13.6362 9.16266 13.7055 9.28431Z" fill="#4C6EF5"/>
</svg>
